%TF.GenerationSoftware,KiCad,Pcbnew,10.0.3*%
%TF.CreationDate,2026-06-08T21:29:06-05:00*%
%TF.ProjectId,OPA564 Voltage Follower,4f504135-3634-4205-966f-6c7461676520,rev?*%
%TF.SameCoordinates,Original*%
%TF.FileFunction,Paste,Top*%
%TF.FilePolarity,Positive*%
%FSLAX46Y46*%
G04 Gerber Fmt 4.6, Leading zero omitted, Abs format (unit mm)*
G04 Created by KiCad (PCBNEW 10.0.3) date 2026-06-08 21:29:06*
%MOMM*%
%LPD*%
G01*
G04 APERTURE LIST*
G04 Aperture macros list*
%AMRoundRect*
0 Rectangle with rounded corners*
0 $1 Rounding radius*
0 $2 $3 $4 $5 $6 $7 $8 $9 X,Y pos of 4 corners*
0 Add a 4 corners polygon primitive as box body*
4,1,4,$2,$3,$4,$5,$6,$7,$8,$9,$2,$3,0*
0 Add four circle primitives for the rounded corners*
1,1,$1+$1,$2,$3*
1,1,$1+$1,$4,$5*
1,1,$1+$1,$6,$7*
1,1,$1+$1,$8,$9*
0 Add four rect primitives between the rounded corners*
20,1,$1+$1,$2,$3,$4,$5,0*
20,1,$1+$1,$4,$5,$6,$7,0*
20,1,$1+$1,$6,$7,$8,$9,0*
20,1,$1+$1,$8,$9,$2,$3,0*%
G04 Aperture macros list end*
%ADD10RoundRect,0.237500X0.250000X0.237500X-0.250000X0.237500X-0.250000X-0.237500X0.250000X-0.237500X0*%
%ADD11RoundRect,0.250000X-0.475000X0.337500X-0.475000X-0.337500X0.475000X-0.337500X0.475000X0.337500X0*%
%ADD12RoundRect,0.250000X-1.450000X0.537500X-1.450000X-0.537500X1.450000X-0.537500X1.450000X0.537500X0*%
%ADD13RoundRect,0.250000X0.450000X-0.350000X0.450000X0.350000X-0.450000X0.350000X-0.450000X-0.350000X0*%
%ADD14R,1.981200X0.558800*%
%ADD15R,2.794000X3.810000*%
%ADD16RoundRect,0.237500X0.237500X-0.250000X0.237500X0.250000X-0.237500X0.250000X-0.237500X-0.250000X0*%
%ADD17RoundRect,0.250000X-0.450000X0.350000X-0.450000X-0.350000X0.450000X-0.350000X0.450000X0.350000X0*%
G04 APERTURE END LIST*
D10*
%TO.C,R0*%
X173412500Y-64000000D03*
X171587500Y-64000000D03*
%TD*%
D11*
%TO.C,C8*%
X189000000Y-84962500D03*
X189000000Y-87037500D03*
%TD*%
D12*
%TO.C,C5*%
X193500000Y-76862500D03*
X193500000Y-81137500D03*
%TD*%
D11*
%TO.C,C4*%
X189087500Y-70912500D03*
X189087500Y-72987500D03*
%TD*%
D13*
%TO.C,R1*%
X180500000Y-62500000D03*
X180500000Y-60500000D03*
%TD*%
D12*
%TO.C,C7*%
X193500000Y-83862500D03*
X193500000Y-88137500D03*
%TD*%
D11*
%TO.C,C6*%
X189000000Y-77962500D03*
X189000000Y-80037500D03*
%TD*%
D14*
%TO.C,IC1*%
X168102000Y-50340000D03*
X168102000Y-51610000D03*
X168102000Y-52880000D03*
X168102000Y-54150000D03*
X168102000Y-55420000D03*
X168102000Y-56690000D03*
X168102000Y-57960000D03*
X168102000Y-59230000D03*
X168102000Y-60500000D03*
X168102000Y-61770000D03*
X177500000Y-61770000D03*
X177500000Y-60500000D03*
X177500000Y-59230000D03*
X177500000Y-57960000D03*
X177500000Y-56690000D03*
X177500000Y-55420000D03*
X177500000Y-54150000D03*
X177500000Y-52880000D03*
X177500000Y-51610000D03*
X177500000Y-50340000D03*
D15*
X172801000Y-56055000D03*
%TD*%
D16*
%TO.C,R0*%
X165000000Y-62825000D03*
X165000000Y-61000000D03*
%TD*%
D13*
%TO.C,R2*%
X180500000Y-52500000D03*
X180500000Y-50500000D03*
%TD*%
D17*
%TO.C,R3*%
X180500000Y-54500000D03*
X180500000Y-56500000D03*
%TD*%
D16*
%TO.C,R0*%
X162500000Y-50912500D03*
X162500000Y-49087500D03*
%TD*%
D12*
%TO.C,C3*%
X193587500Y-69812500D03*
X193587500Y-74087500D03*
%TD*%
D13*
%TO.C,R9*%
X161500000Y-62500000D03*
X161500000Y-60500000D03*
%TD*%
D14*
%TO.C,IC2*%
X149801000Y-50000000D03*
X149801000Y-51270000D03*
X149801000Y-52540000D03*
X149801000Y-53810000D03*
X149801000Y-55080000D03*
X149801000Y-56350000D03*
X149801000Y-57620000D03*
X149801000Y-58890000D03*
X149801000Y-60160000D03*
X149801000Y-61430000D03*
X159199000Y-61430000D03*
X159199000Y-60160000D03*
X159199000Y-58890000D03*
X159199000Y-57620000D03*
X159199000Y-56350000D03*
X159199000Y-55080000D03*
X159199000Y-53810000D03*
X159199000Y-52540000D03*
X159199000Y-51270000D03*
X159199000Y-50000000D03*
D15*
X154500000Y-55715000D03*
%TD*%
M02*
