%TF.GenerationSoftware,KiCad,Pcbnew,10.0.3*%
%TF.CreationDate,2026-06-08T21:29:06-05:00*%
%TF.ProjectId,OPA564 Voltage Follower,4f504135-3634-4205-966f-6c7461676520,rev?*%
%TF.SameCoordinates,Original*%
%TF.FileFunction,Copper,L1,Top*%
%TF.FilePolarity,Positive*%
%FSLAX46Y46*%
G04 Gerber Fmt 4.6, Leading zero omitted, Abs format (unit mm)*
G04 Created by KiCad (PCBNEW 10.0.3) date 2026-06-08 21:29:06*
%MOMM*%
%LPD*%
G01*
G04 APERTURE LIST*
G04 Aperture macros list*
%AMRoundRect*
0 Rectangle with rounded corners*
0 $1 Rounding radius*
0 $2 $3 $4 $5 $6 $7 $8 $9 X,Y pos of 4 corners*
0 Add a 4 corners polygon primitive as box body*
4,1,4,$2,$3,$4,$5,$6,$7,$8,$9,$2,$3,0*
0 Add four circle primitives for the rounded corners*
1,1,$1+$1,$2,$3*
1,1,$1+$1,$4,$5*
1,1,$1+$1,$6,$7*
1,1,$1+$1,$8,$9*
0 Add four rect primitives between the rounded corners*
20,1,$1+$1,$2,$3,$4,$5,0*
20,1,$1+$1,$4,$5,$6,$7,0*
20,1,$1+$1,$6,$7,$8,$9,0*
20,1,$1+$1,$8,$9,$2,$3,0*%
G04 Aperture macros list end*
%TA.AperFunction,SMDPad,CuDef*%
%ADD10RoundRect,0.237500X0.250000X0.237500X-0.250000X0.237500X-0.250000X-0.237500X0.250000X-0.237500X0*%
%TD*%
%TA.AperFunction,ComponentPad*%
%ADD11C,2.000000*%
%TD*%
%TA.AperFunction,SMDPad,CuDef*%
%ADD12RoundRect,0.250000X-0.475000X0.337500X-0.475000X-0.337500X0.475000X-0.337500X0.475000X0.337500X0*%
%TD*%
%TA.AperFunction,SMDPad,CuDef*%
%ADD13RoundRect,0.250000X-1.450000X0.537500X-1.450000X-0.537500X1.450000X-0.537500X1.450000X0.537500X0*%
%TD*%
%TA.AperFunction,ComponentPad*%
%ADD14C,1.550000*%
%TD*%
%TA.AperFunction,ComponentPad*%
%ADD15C,2.800000*%
%TD*%
%TA.AperFunction,SMDPad,CuDef*%
%ADD16RoundRect,0.250000X0.450000X-0.350000X0.450000X0.350000X-0.450000X0.350000X-0.450000X-0.350000X0*%
%TD*%
%TA.AperFunction,SMDPad,CuDef*%
%ADD17R,1.981200X0.558800*%
%TD*%
%TA.AperFunction,SMDPad,CuDef*%
%ADD18R,2.794000X3.810000*%
%TD*%
%TA.AperFunction,SMDPad,CuDef*%
%ADD19RoundRect,0.237500X0.237500X-0.250000X0.237500X0.250000X-0.237500X0.250000X-0.237500X-0.250000X0*%
%TD*%
%TA.AperFunction,SMDPad,CuDef*%
%ADD20RoundRect,0.250000X-0.450000X0.350000X-0.450000X-0.350000X0.450000X-0.350000X0.450000X0.350000X0*%
%TD*%
%TA.AperFunction,Conductor*%
%ADD21C,0.200000*%
%TD*%
G04 APERTURE END LIST*
D10*
%TO.P,R0,1*%
%TO.N,-12 Volts*%
X173412500Y-64000000D03*
%TO.P,R0,2*%
X171587500Y-64000000D03*
%TD*%
D11*
%TO.P,,1,Pin_1*%
%TO.N,+12 Volts*%
X199000000Y-79000000D03*
%TD*%
D12*
%TO.P,C8,1*%
%TO.N,GND*%
X189000000Y-84962500D03*
%TO.P,C8,2*%
%TO.N,-8 Volts*%
X189000000Y-87037500D03*
%TD*%
D13*
%TO.P,C5,1*%
%TO.N,GND*%
X193500000Y-76862500D03*
%TO.P,C5,2*%
%TO.N,+12 Volts*%
X193500000Y-81137500D03*
%TD*%
D12*
%TO.P,C4,1*%
%TO.N,GND*%
X189087500Y-70912500D03*
%TO.P,C4,2*%
%TO.N,-12 Volts*%
X189087500Y-72987500D03*
%TD*%
D14*
%TO.P,J2,1,In_1*%
%TO.N,Net-(IC2--IN)*%
X143000000Y-55500000D03*
D15*
%TO.P,J2,2,Ext_2*%
%TO.N,GND*%
X135200000Y-51700000D03*
%TO.P,J2,3*%
%TO.N,N/C*%
X135200000Y-59300000D03*
%TD*%
D16*
%TO.P,R1,1*%
%TO.N,-12 Volts*%
X180500000Y-62500000D03*
%TO.P,R1,2*%
%TO.N,Net-(IC1-ISET)*%
X180500000Y-60500000D03*
%TD*%
D13*
%TO.P,C7,1*%
%TO.N,GND*%
X193500000Y-83862500D03*
%TO.P,C7,2*%
%TO.N,-8 Volts*%
X193500000Y-88137500D03*
%TD*%
D12*
%TO.P,C6,1*%
%TO.N,GND*%
X189000000Y-77962500D03*
%TO.P,C6,2*%
%TO.N,+12 Volts*%
X189000000Y-80037500D03*
%TD*%
D17*
%TO.P,IC1,1,V-_1_1*%
%TO.N,-12 Volts*%
X168102000Y-50340000D03*
%TO.P,IC1,2,V+_PWR_1_2*%
%TO.N,+12 Volts*%
X168102000Y-51610000D03*
%TO.P,IC1,3,V+_PWR_2_3*%
X168102000Y-52880000D03*
%TO.P,IC1,4,V+_PWR_3_4*%
X168102000Y-54150000D03*
%TO.P,IC1,5,VOUT_1_5*%
%TO.N,Signal Output*%
X168102000Y-55420000D03*
%TO.P,IC1,6,VOUT_2_6*%
X168102000Y-56690000D03*
%TO.P,IC1,7,V-PWR_1_7*%
%TO.N,-12 Volts*%
X168102000Y-57960000D03*
%TO.P,IC1,8,V-PWR_2_8*%
X168102000Y-59230000D03*
%TO.P,IC1,9,TSENSE_9*%
%TO.N,unconnected-(IC1-TSENSE-Pad9)*%
X168102000Y-60500000D03*
%TO.P,IC1,10,V-_2_10*%
%TO.N,-12 Volts*%
X168102000Y-61770000D03*
%TO.P,IC1,11,V-_3_11*%
X177500000Y-61770000D03*
%TO.P,IC1,12,ISET_12*%
%TO.N,Net-(IC1-ISET)*%
X177500000Y-60500000D03*
%TO.P,IC1,13,IFLAG_13*%
%TO.N,unconnected-(IC1-IFLAG-Pad13)*%
X177500000Y-59230000D03*
%TO.P,IC1,14,VDIG_14*%
%TO.N,-8 Volts*%
X177500000Y-57960000D03*
%TO.P,IC1,15,-IN_15*%
%TO.N,Net-(IC1--IN)*%
X177500000Y-56690000D03*
%TO.P,IC1,16,+IN_16*%
%TO.N,Signal Input*%
X177500000Y-55420000D03*
%TO.P,IC1,17,E/~{S}_17*%
%TO.N,unconnected-(IC1-E{slash}~{S}-Pad17)*%
X177500000Y-54150000D03*
%TO.P,IC1,18,TFLAG_18*%
%TO.N,unconnected-(IC1-TFLAG-Pad18)*%
X177500000Y-52880000D03*
%TO.P,IC1,19,V+_19*%
%TO.N,+12 Volts*%
X177500000Y-51610000D03*
%TO.P,IC1,20,V-_4_20*%
%TO.N,-12 Volts*%
X177500000Y-50340000D03*
D18*
%TO.P,IC1,21,EP_21*%
%TO.N,unconnected-(IC1-EP-Pad21)*%
X172801000Y-56055000D03*
%TD*%
D19*
%TO.P,R0,1*%
%TO.N,-8 Volts*%
X165000000Y-62825000D03*
%TO.P,R0,2*%
X165000000Y-61000000D03*
%TD*%
D11*
%TO.P,,1,Pin_1*%
%TO.N,-8 Volts*%
X199000000Y-86000000D03*
%TD*%
%TO.P,,1,Pin_1*%
%TO.N,-12 Volts*%
X199000000Y-72000000D03*
%TD*%
D16*
%TO.P,R2,1*%
%TO.N,Net-(IC1--IN)*%
X180500000Y-52500000D03*
%TO.P,R2,2*%
%TO.N,Signal Output*%
X180500000Y-50500000D03*
%TD*%
D20*
%TO.P,R3,1*%
%TO.N,GND*%
X180500000Y-54500000D03*
%TO.P,R3,2*%
%TO.N,Net-(IC1--IN)*%
X180500000Y-56500000D03*
%TD*%
D19*
%TO.P,R0,1*%
%TO.N,Net-(IC2--IN)*%
X162500000Y-50912500D03*
%TO.P,R0,2*%
X162500000Y-49087500D03*
%TD*%
D13*
%TO.P,C3,1*%
%TO.N,GND*%
X193587500Y-69812500D03*
%TO.P,C3,2*%
%TO.N,-12 Volts*%
X193587500Y-74087500D03*
%TD*%
D16*
%TO.P,R9,1*%
%TO.N,-12 Volts*%
X161500000Y-62500000D03*
%TO.P,R9,2*%
%TO.N,Net-(IC2-ISET)*%
X161500000Y-60500000D03*
%TD*%
D17*
%TO.P,IC2,1,V-_1_1*%
%TO.N,-12 Volts*%
X149801000Y-50000000D03*
%TO.P,IC2,2,V+_PWR_1_2*%
%TO.N,+12 Volts*%
X149801000Y-51270000D03*
%TO.P,IC2,3,V+_PWR_2_3*%
X149801000Y-52540000D03*
%TO.P,IC2,4,V+_PWR_3_4*%
X149801000Y-53810000D03*
%TO.P,IC2,5,VOUT_1_5*%
%TO.N,Net-(IC2--IN)*%
X149801000Y-55080000D03*
%TO.P,IC2,6,VOUT_2_6*%
X149801000Y-56350000D03*
%TO.P,IC2,7,V-PWR_1_7*%
%TO.N,-12 Volts*%
X149801000Y-57620000D03*
%TO.P,IC2,8,V-PWR_2_8*%
X149801000Y-58890000D03*
%TO.P,IC2,9,TSENSE_9*%
%TO.N,unconnected-(IC2-TSENSE-Pad9)*%
X149801000Y-60160000D03*
%TO.P,IC2,10,V-_2_10*%
%TO.N,-12 Volts*%
X149801000Y-61430000D03*
%TO.P,IC2,11,V-_3_11*%
X159199000Y-61430000D03*
%TO.P,IC2,12,ISET_12*%
%TO.N,Net-(IC2-ISET)*%
X159199000Y-60160000D03*
%TO.P,IC2,13,IFLAG_13*%
%TO.N,unconnected-(IC2-IFLAG-Pad13)*%
X159199000Y-58890000D03*
%TO.P,IC2,14,VDIG_14*%
%TO.N,-8 Volts*%
X159199000Y-57620000D03*
%TO.P,IC2,15,-IN_15*%
%TO.N,Net-(IC2--IN)*%
X159199000Y-56350000D03*
%TO.P,IC2,16,+IN_16*%
%TO.N,Signal Output*%
X159199000Y-55080000D03*
%TO.P,IC2,17,E/~{S}_17*%
%TO.N,unconnected-(IC2-E{slash}~{S}-Pad17)*%
X159199000Y-53810000D03*
%TO.P,IC2,18,TFLAG_18*%
%TO.N,unconnected-(IC2-TFLAG-Pad18)*%
X159199000Y-52540000D03*
%TO.P,IC2,19,V+_19*%
%TO.N,+12 Volts*%
X159199000Y-51270000D03*
%TO.P,IC2,20,V-_4_20*%
%TO.N,-12 Volts*%
X159199000Y-50000000D03*
D18*
%TO.P,IC2,21,EP_21*%
%TO.N,unconnected-(IC2-EP-Pad21)*%
X154500000Y-55715000D03*
%TD*%
D14*
%TO.P,J1,1,In_1*%
%TO.N,Signal Input*%
X183687500Y-56000000D03*
D15*
%TO.P,J1,2,Ext_2*%
%TO.N,GND*%
X191487500Y-59800000D03*
%TO.P,J1,3*%
%TO.N,N/C*%
X191487500Y-52200000D03*
%TD*%
%TO.N,-12 Volts*%
D21*
X159269000Y-61500000D02*
X159199000Y-61430000D01*
X177770000Y-61770000D02*
X178500000Y-62500000D01*
X149801000Y-50000000D02*
X159199000Y-50000000D01*
X151500000Y-59500000D02*
X151500000Y-60500000D01*
X178500000Y-62500000D02*
X180500000Y-62500000D01*
X166770000Y-59230000D02*
X168102000Y-59230000D01*
X189087500Y-72987500D02*
X188000000Y-71900000D01*
X160430000Y-61430000D02*
X161500000Y-62500000D01*
X186000000Y-62500000D02*
X180500000Y-62500000D01*
X196912500Y-74087500D02*
X193587500Y-74087500D01*
X159199000Y-61430000D02*
X160430000Y-61430000D01*
X188000000Y-71900000D02*
X188000000Y-64500000D01*
X168102000Y-50340000D02*
X169340000Y-50340000D01*
X149801000Y-58890000D02*
X150890000Y-58890000D01*
X161500000Y-62500000D02*
X161962500Y-62037500D01*
X177500000Y-61770000D02*
X177770000Y-61770000D01*
X168102000Y-61770000D02*
X166770000Y-61770000D01*
X177500000Y-50340000D02*
X168102000Y-50340000D01*
X166500000Y-61500000D02*
X166500000Y-59500000D01*
X192487500Y-72987500D02*
X193587500Y-74087500D01*
X161962500Y-62037500D02*
X166502500Y-62037500D01*
X152000000Y-50500000D02*
X152000000Y-57000000D01*
X150570000Y-61430000D02*
X149801000Y-61430000D01*
X152000000Y-57000000D02*
X151380000Y-57620000D01*
X169340000Y-50340000D02*
X170000000Y-51000000D01*
X188000000Y-64500000D02*
X186000000Y-62500000D01*
X169372000Y-57960000D02*
X168102000Y-57960000D01*
X149801000Y-57620000D02*
X149801000Y-58890000D01*
X170332000Y-64000000D02*
X168102000Y-61770000D01*
X151380000Y-57620000D02*
X149801000Y-57620000D01*
X170000000Y-57332000D02*
X169372000Y-57960000D01*
X173412500Y-64000000D02*
X175270000Y-64000000D01*
X151500000Y-50000000D02*
X152000000Y-50500000D01*
X166770000Y-61770000D02*
X166500000Y-61500000D01*
X150890000Y-58890000D02*
X151500000Y-59500000D01*
X175270000Y-64000000D02*
X177500000Y-61770000D01*
X151500000Y-60500000D02*
X150570000Y-61430000D01*
X149801000Y-50000000D02*
X151500000Y-50000000D01*
X166500000Y-59500000D02*
X166770000Y-59230000D01*
X149801000Y-61430000D02*
X159199000Y-61430000D01*
X189087500Y-72987500D02*
X192487500Y-72987500D01*
X168102000Y-57960000D02*
X168102000Y-59230000D01*
X166502500Y-62037500D02*
X166770000Y-61770000D01*
X170000000Y-51000000D02*
X170000000Y-57332000D01*
X171587500Y-64000000D02*
X170332000Y-64000000D01*
X199000000Y-72000000D02*
X196912500Y-74087500D01*
%TO.N,+12 Volts*%
X166768630Y-48100000D02*
X182191664Y-48100000D01*
X201500000Y-80000000D02*
X201500000Y-67408336D01*
X148000000Y-50500000D02*
X148770000Y-51270000D01*
X189000000Y-80037500D02*
X187975000Y-81062500D01*
X166500000Y-51500000D02*
X166500000Y-49500000D01*
X201500000Y-67408336D02*
X185691664Y-51600000D01*
X148770000Y-51270000D02*
X149801000Y-51270000D01*
X166500000Y-49500000D02*
X167000000Y-49000000D01*
X168102000Y-51610000D02*
X166610000Y-51610000D01*
X192400000Y-80037500D02*
X193500000Y-81137500D01*
X148500000Y-49000000D02*
X148000000Y-49500000D01*
X149801000Y-51270000D02*
X149801000Y-53810000D01*
X167000000Y-49000000D02*
X178500000Y-49000000D01*
X177510000Y-51600000D02*
X177500000Y-51610000D01*
X178500000Y-49000000D02*
X179000000Y-49500000D01*
X185691664Y-51600000D02*
X177510000Y-51600000D01*
X166610000Y-51610000D02*
X166500000Y-51500000D01*
X187975000Y-81062500D02*
X187975000Y-85534744D01*
X160500000Y-49000000D02*
X148500000Y-49000000D01*
X182191664Y-48100000D02*
X185691664Y-51600000D01*
X188290256Y-85850000D02*
X195650000Y-85850000D01*
X160230000Y-51270000D02*
X161000000Y-50500000D01*
X189000000Y-80037500D02*
X192400000Y-80037500D01*
X161000000Y-50500000D02*
X161625000Y-49875000D01*
X179000000Y-51000000D02*
X178390000Y-51610000D01*
X168102000Y-51610000D02*
X168102000Y-54150000D01*
X159199000Y-51270000D02*
X160230000Y-51270000D01*
X196862500Y-81137500D02*
X193500000Y-81137500D01*
X178390000Y-51610000D02*
X177500000Y-51610000D01*
X161625000Y-49875000D02*
X164993630Y-49875000D01*
X148000000Y-49500000D02*
X148000000Y-50500000D01*
X164993630Y-49875000D02*
X166768630Y-48100000D01*
X199000000Y-79000000D02*
X196862500Y-81137500D01*
X161000000Y-49500000D02*
X160500000Y-49000000D01*
X161000000Y-50500000D02*
X161000000Y-49500000D01*
X179000000Y-49500000D02*
X179000000Y-51000000D01*
X195650000Y-85850000D02*
X201500000Y-80000000D01*
X187975000Y-85534744D02*
X188290256Y-85850000D01*
%TO.N,GND*%
X180500000Y-54500000D02*
X186187500Y-54500000D01*
X192400000Y-77962500D02*
X193500000Y-76862500D01*
X200500000Y-80000000D02*
X200500000Y-73000000D01*
X192487500Y-70912500D02*
X193587500Y-69812500D01*
X189087500Y-70912500D02*
X192487500Y-70912500D01*
X200500000Y-71000000D02*
X199312500Y-69812500D01*
X189000000Y-77962500D02*
X192400000Y-77962500D01*
X196637500Y-83862500D02*
X200500000Y-80000000D01*
X189000000Y-84962500D02*
X192400000Y-84962500D01*
X200500000Y-73000000D02*
X200500000Y-71000000D01*
X191487500Y-67712500D02*
X191487500Y-59800000D01*
X193500000Y-83862500D02*
X196637500Y-83862500D01*
X192400000Y-84962500D02*
X193500000Y-83862500D01*
X186187500Y-54500000D02*
X191487500Y-59800000D01*
X193500000Y-76862500D02*
X196637500Y-76862500D01*
X199312500Y-69812500D02*
X193587500Y-69812500D01*
X193587500Y-69812500D02*
X191487500Y-67712500D01*
X196637500Y-76862500D02*
X200500000Y-73000000D01*
%TO.N,-8 Volts*%
X199000000Y-86000000D02*
X196862500Y-88137500D01*
X192400000Y-87037500D02*
X193500000Y-88137500D01*
X189000000Y-87037500D02*
X192400000Y-87037500D01*
X172375000Y-64466722D02*
X172066722Y-64775000D01*
X166950000Y-64775000D02*
X165000000Y-62825000D01*
X177500000Y-57960000D02*
X176373278Y-57960000D01*
X171500000Y-70262500D02*
X188275000Y-87037500D01*
X196862500Y-88137500D02*
X193500000Y-88137500D01*
X172375000Y-61958278D02*
X172375000Y-64466722D01*
X176373278Y-57960000D02*
X172375000Y-61958278D01*
X172066722Y-64775000D02*
X171500000Y-64775000D01*
X165000000Y-61087500D02*
X161532500Y-57620000D01*
X171500000Y-64775000D02*
X171500000Y-70262500D01*
X188275000Y-87037500D02*
X189000000Y-87037500D01*
X171500000Y-64775000D02*
X166950000Y-64775000D01*
X161532500Y-57620000D02*
X159199000Y-57620000D01*
%TO.N,Net-(IC2--IN)*%
X158110600Y-54389400D02*
X160489600Y-54389400D01*
X143850000Y-56350000D02*
X143000000Y-55500000D01*
X149801000Y-56350000D02*
X143850000Y-56350000D01*
X158599000Y-56350000D02*
X157908400Y-55659400D01*
X147600000Y-49334315D02*
X147600000Y-53590200D01*
X162500000Y-52379000D02*
X162500000Y-50912500D01*
X149089800Y-55080000D02*
X149801000Y-55080000D01*
X160489600Y-54389400D02*
X162500000Y-52379000D01*
X157908400Y-54591600D02*
X158110600Y-54389400D01*
X157908400Y-55659400D02*
X157908400Y-54591600D01*
X159199000Y-56350000D02*
X158599000Y-56350000D01*
X149801000Y-55080000D02*
X149801000Y-56350000D01*
X162012500Y-48600000D02*
X148334314Y-48600000D01*
X148334314Y-48600000D02*
X147600000Y-49334315D01*
X147600000Y-53590200D02*
X149089800Y-55080000D01*
X162500000Y-49087500D02*
X162012500Y-48600000D01*
%TO.N,Net-(IC1-ISET)*%
X177500000Y-60500000D02*
X180500000Y-60500000D01*
%TO.N,Signal Output*%
X168102000Y-55420000D02*
X168102000Y-56690000D01*
X166000000Y-53918000D02*
X166000000Y-49434315D01*
X168102000Y-55420000D02*
X167502000Y-55420000D01*
X179800000Y-50500000D02*
X179500000Y-50200000D01*
X180500000Y-50500000D02*
X179800000Y-50500000D01*
X179500000Y-49000000D02*
X179000000Y-48500000D01*
X166000000Y-49434315D02*
X166934315Y-48500000D01*
X159539000Y-55420000D02*
X159199000Y-55080000D01*
X167502000Y-55420000D02*
X166000000Y-53918000D01*
X166934315Y-48500000D02*
X179000000Y-48500000D01*
X168102000Y-55420000D02*
X159539000Y-55420000D01*
X179500000Y-50200000D02*
X179500000Y-49000000D01*
%TO.N,Net-(IC1--IN)*%
X175500000Y-56000000D02*
X176190000Y-56690000D01*
X180300600Y-52300600D02*
X176199400Y-52300600D01*
X176190000Y-56690000D02*
X177500000Y-56690000D01*
X180500000Y-52500000D02*
X180300600Y-52300600D01*
X175500000Y-53000000D02*
X175500000Y-56000000D01*
X176199400Y-52300600D02*
X175500000Y-53000000D01*
X180310000Y-56690000D02*
X180500000Y-56500000D01*
X177500000Y-56690000D02*
X180310000Y-56690000D01*
%TO.N,Signal Input*%
X177500000Y-55420000D02*
X183107500Y-55420000D01*
X183107500Y-55420000D02*
X183687500Y-56000000D01*
%TO.N,Net-(IC2-ISET)*%
X159199000Y-60160000D02*
X161160000Y-60160000D01*
X161160000Y-60160000D02*
X161500000Y-60500000D01*
%TD*%
%TA.AperFunction,Conductor*%
%TO.N,GND*%
G36*
X201942539Y-45520185D02*
G01*
X201988294Y-45572989D01*
X201999500Y-45624500D01*
X201999500Y-66759239D01*
X201979815Y-66826278D01*
X201927011Y-66872033D01*
X201857853Y-66881977D01*
X201794297Y-66852952D01*
X201787819Y-66846920D01*
X187016340Y-52075441D01*
X189587000Y-52075441D01*
X189587000Y-52324558D01*
X189587001Y-52324575D01*
X189619517Y-52571561D01*
X189683998Y-52812207D01*
X189779330Y-53042361D01*
X189779337Y-53042376D01*
X189903900Y-53258126D01*
X190055560Y-53455774D01*
X190055566Y-53455781D01*
X190231718Y-53631933D01*
X190231725Y-53631939D01*
X190429373Y-53783599D01*
X190645123Y-53908162D01*
X190645138Y-53908169D01*
X190675956Y-53920934D01*
X190875293Y-54003502D01*
X191115935Y-54067982D01*
X191362935Y-54100500D01*
X191362942Y-54100500D01*
X191612058Y-54100500D01*
X191612065Y-54100500D01*
X191859065Y-54067982D01*
X192099707Y-54003502D01*
X192329873Y-53908164D01*
X192545627Y-53783599D01*
X192743276Y-53631938D01*
X192919438Y-53455776D01*
X193071099Y-53258127D01*
X193195664Y-53042373D01*
X193291002Y-52812207D01*
X193355482Y-52571565D01*
X193388000Y-52324565D01*
X193388000Y-52075435D01*
X193355482Y-51828435D01*
X193291002Y-51587793D01*
X193195664Y-51357627D01*
X193178868Y-51328536D01*
X193071099Y-51141873D01*
X192919439Y-50944225D01*
X192919433Y-50944218D01*
X192743281Y-50768066D01*
X192743274Y-50768060D01*
X192545626Y-50616400D01*
X192329876Y-50491837D01*
X192329861Y-50491830D01*
X192099707Y-50396498D01*
X191859061Y-50332017D01*
X191612075Y-50299501D01*
X191612070Y-50299500D01*
X191612065Y-50299500D01*
X191362935Y-50299500D01*
X191362929Y-50299500D01*
X191362924Y-50299501D01*
X191115938Y-50332017D01*
X190875292Y-50396498D01*
X190645138Y-50491830D01*
X190645123Y-50491837D01*
X190429373Y-50616400D01*
X190231725Y-50768060D01*
X190231718Y-50768066D01*
X190055566Y-50944218D01*
X190055560Y-50944225D01*
X189903900Y-51141873D01*
X189779337Y-51357623D01*
X189779330Y-51357638D01*
X189683998Y-51587792D01*
X189619517Y-51828438D01*
X189587001Y-52075424D01*
X189587000Y-52075441D01*
X187016340Y-52075441D01*
X186172185Y-51231286D01*
X186172184Y-51231284D01*
X186060380Y-51119480D01*
X186060377Y-51119478D01*
X182679254Y-47738355D01*
X182679252Y-47738352D01*
X182560381Y-47619481D01*
X182560380Y-47619480D01*
X182473568Y-47569360D01*
X182473568Y-47569359D01*
X182473564Y-47569358D01*
X182423449Y-47540423D01*
X182270721Y-47499499D01*
X182112607Y-47499499D01*
X182105011Y-47499499D01*
X182104995Y-47499500D01*
X166847687Y-47499500D01*
X166689573Y-47499500D01*
X166536845Y-47540423D01*
X166536844Y-47540423D01*
X166536842Y-47540424D01*
X166536839Y-47540425D01*
X166486726Y-47569359D01*
X166486725Y-47569360D01*
X166443319Y-47594420D01*
X166399915Y-47619479D01*
X166399912Y-47619481D01*
X166288108Y-47731286D01*
X164781214Y-49238181D01*
X164719891Y-49271666D01*
X164693533Y-49274500D01*
X163599500Y-49274500D01*
X163532461Y-49254815D01*
X163486706Y-49202011D01*
X163475500Y-49150500D01*
X163475499Y-48788330D01*
X163475498Y-48788312D01*
X163465174Y-48687247D01*
X163410908Y-48523484D01*
X163320340Y-48376650D01*
X163198350Y-48254660D01*
X163051516Y-48164092D01*
X162887753Y-48109826D01*
X162887751Y-48109825D01*
X162786684Y-48099500D01*
X162786677Y-48099500D01*
X162379834Y-48099500D01*
X162364345Y-48095350D01*
X162350602Y-48096005D01*
X162317836Y-48082888D01*
X162294404Y-48069360D01*
X162294402Y-48069359D01*
X162244285Y-48040423D01*
X162091557Y-47999499D01*
X161933443Y-47999499D01*
X161925847Y-47999499D01*
X161925831Y-47999500D01*
X148420983Y-47999500D01*
X148420967Y-47999499D01*
X148413371Y-47999499D01*
X148255257Y-47999499D01*
X148147901Y-48028265D01*
X148102524Y-48040424D01*
X148102523Y-48040425D01*
X148052410Y-48069359D01*
X148052409Y-48069360D01*
X148028978Y-48082888D01*
X147965599Y-48119479D01*
X147965596Y-48119481D01*
X147853792Y-48231286D01*
X147119481Y-48965597D01*
X147119475Y-48965605D01*
X147040426Y-49102524D01*
X147040423Y-49102529D01*
X147027569Y-49150500D01*
X146999499Y-49255258D01*
X146999499Y-49255259D01*
X146999499Y-49255260D01*
X146999500Y-49355258D01*
X146999500Y-53503530D01*
X146999499Y-53503548D01*
X146999499Y-53669254D01*
X146999498Y-53669254D01*
X147009399Y-53706204D01*
X147040423Y-53821985D01*
X147050212Y-53838939D01*
X147050214Y-53838944D01*
X147119475Y-53958909D01*
X147119481Y-53958917D01*
X147238349Y-54077785D01*
X147238355Y-54077790D01*
X148273581Y-55113016D01*
X148307066Y-55174339D01*
X148309900Y-55200696D01*
X148309900Y-55407269D01*
X148309901Y-55407276D01*
X148316308Y-55466883D01*
X148359307Y-55582167D01*
X148364291Y-55651859D01*
X148330806Y-55713182D01*
X148269483Y-55746666D01*
X148243125Y-55749500D01*
X144397067Y-55749500D01*
X144330028Y-55729815D01*
X144284273Y-55677011D01*
X144274329Y-55607853D01*
X144274580Y-55606191D01*
X144275500Y-55600384D01*
X144275500Y-55399616D01*
X144244093Y-55201320D01*
X144182052Y-55010378D01*
X144182050Y-55010375D01*
X144182050Y-55010373D01*
X144090904Y-54831491D01*
X144082192Y-54819500D01*
X143972897Y-54669068D01*
X143830932Y-54527103D01*
X143668508Y-54409095D01*
X143661619Y-54405585D01*
X143489626Y-54317949D01*
X143298680Y-54255907D01*
X143100384Y-54224500D01*
X142899616Y-54224500D01*
X142800468Y-54240203D01*
X142701319Y-54255907D01*
X142510373Y-54317949D01*
X142331491Y-54409095D01*
X142282073Y-54445000D01*
X142169068Y-54527103D01*
X142169066Y-54527105D01*
X142169065Y-54527105D01*
X142027105Y-54669065D01*
X142027105Y-54669066D01*
X142027103Y-54669068D01*
X141991301Y-54718345D01*
X141909095Y-54831491D01*
X141817949Y-55010373D01*
X141755907Y-55201319D01*
X141755907Y-55201320D01*
X141724500Y-55399616D01*
X141724500Y-55600384D01*
X141742653Y-55715000D01*
X141755907Y-55798680D01*
X141817949Y-55989626D01*
X141903737Y-56157992D01*
X141909095Y-56168508D01*
X142027103Y-56330932D01*
X142169068Y-56472897D01*
X142331492Y-56590905D01*
X142416007Y-56633967D01*
X142510373Y-56682050D01*
X142510375Y-56682050D01*
X142510378Y-56682052D01*
X142701320Y-56744093D01*
X142899616Y-56775500D01*
X142899617Y-56775500D01*
X143100383Y-56775500D01*
X143100384Y-56775500D01*
X143298680Y-56744093D01*
X143298979Y-56743995D01*
X143299097Y-56743992D01*
X143303419Y-56742955D01*
X143303636Y-56743861D01*
X143368814Y-56741984D01*
X143425001Y-56774237D01*
X143481284Y-56830520D01*
X143481286Y-56830521D01*
X143481290Y-56830524D01*
X143601656Y-56900016D01*
X143618216Y-56909577D01*
X143770943Y-56950501D01*
X143770945Y-56950501D01*
X143936654Y-56950501D01*
X143936670Y-56950500D01*
X148243125Y-56950500D01*
X148310164Y-56970185D01*
X148355919Y-57022989D01*
X148365863Y-57092147D01*
X148359307Y-57117833D01*
X148324286Y-57211730D01*
X148316309Y-57233117D01*
X148309900Y-57292727D01*
X148309900Y-57292734D01*
X148309900Y-57292735D01*
X148309900Y-57947270D01*
X148309901Y-57947276D01*
X148316308Y-58006883D01*
X148366602Y-58141728D01*
X148366603Y-58141730D01*
X148395768Y-58180690D01*
X148420184Y-58246155D01*
X148405332Y-58314428D01*
X148395768Y-58329310D01*
X148366603Y-58368269D01*
X148366602Y-58368271D01*
X148316310Y-58503113D01*
X148316309Y-58503117D01*
X148309900Y-58562727D01*
X148309900Y-58562734D01*
X148309900Y-58562735D01*
X148309900Y-59217270D01*
X148309901Y-59217276D01*
X148316308Y-59276883D01*
X148366602Y-59411728D01*
X148366603Y-59411730D01*
X148395768Y-59450690D01*
X148420184Y-59516155D01*
X148405332Y-59584428D01*
X148395768Y-59599310D01*
X148366603Y-59638269D01*
X148366602Y-59638271D01*
X148324285Y-59751731D01*
X148316309Y-59773117D01*
X148309900Y-59832727D01*
X148309900Y-59832734D01*
X148309900Y-59832735D01*
X148309900Y-60487270D01*
X148309901Y-60487276D01*
X148316308Y-60546883D01*
X148366602Y-60681728D01*
X148366603Y-60681730D01*
X148395768Y-60720690D01*
X148420184Y-60786155D01*
X148405332Y-60854428D01*
X148395768Y-60869310D01*
X148366603Y-60908269D01*
X148366602Y-60908271D01*
X148324285Y-61021731D01*
X148316309Y-61043117D01*
X148309900Y-61102727D01*
X148309900Y-61102734D01*
X148309900Y-61102735D01*
X148309900Y-61757270D01*
X148309901Y-61757276D01*
X148316308Y-61816883D01*
X148366602Y-61951728D01*
X148366606Y-61951735D01*
X148452852Y-62066944D01*
X148452855Y-62066947D01*
X148568064Y-62153193D01*
X148568071Y-62153197D01*
X148702917Y-62203491D01*
X148702916Y-62203491D01*
X148709844Y-62204235D01*
X148762527Y-62209900D01*
X150839472Y-62209899D01*
X150899083Y-62203491D01*
X151033931Y-62153196D01*
X151149146Y-62066946D01*
X151149147Y-62066944D01*
X151149149Y-62066943D01*
X151149274Y-62066819D01*
X151149428Y-62066734D01*
X151156246Y-62061631D01*
X151156979Y-62062611D01*
X151210597Y-62033334D01*
X151236955Y-62030500D01*
X157763045Y-62030500D01*
X157830084Y-62050185D01*
X157850726Y-62066819D01*
X157850850Y-62066943D01*
X157850853Y-62066945D01*
X157850854Y-62066946D01*
X157966069Y-62153196D01*
X157966070Y-62153196D01*
X157966071Y-62153197D01*
X158100917Y-62203491D01*
X158100916Y-62203491D01*
X158107844Y-62204235D01*
X158160527Y-62209900D01*
X160175500Y-62209899D01*
X160242539Y-62229584D01*
X160288294Y-62282387D01*
X160299500Y-62333899D01*
X160299500Y-62900001D01*
X160299501Y-62900019D01*
X160310000Y-63002796D01*
X160310001Y-63002799D01*
X160363149Y-63163187D01*
X160365186Y-63169334D01*
X160457288Y-63318656D01*
X160581344Y-63442712D01*
X160730666Y-63534814D01*
X160897203Y-63589999D01*
X160999991Y-63600500D01*
X162000008Y-63600499D01*
X162000016Y-63600498D01*
X162000019Y-63600498D01*
X162056302Y-63594748D01*
X162102797Y-63589999D01*
X162269334Y-63534814D01*
X162418656Y-63442712D01*
X162542712Y-63318656D01*
X162634814Y-63169334D01*
X162689999Y-63002797D01*
X162700500Y-62900009D01*
X162700500Y-62762000D01*
X162720185Y-62694961D01*
X162772989Y-62649206D01*
X162824500Y-62638000D01*
X163900500Y-62638000D01*
X163967539Y-62657685D01*
X164013294Y-62710489D01*
X164024500Y-62762000D01*
X164024500Y-63124169D01*
X164024501Y-63124187D01*
X164034825Y-63225252D01*
X164089092Y-63389015D01*
X164089093Y-63389018D01*
X164122211Y-63442710D01*
X164179660Y-63535850D01*
X164301650Y-63657840D01*
X164448484Y-63748408D01*
X164612247Y-63802674D01*
X164713323Y-63813000D01*
X165087402Y-63812999D01*
X165154441Y-63832683D01*
X165175083Y-63849318D01*
X166465139Y-65139374D01*
X166465149Y-65139385D01*
X166469479Y-65143715D01*
X166469480Y-65143716D01*
X166581284Y-65255520D01*
X166581286Y-65255521D01*
X166581290Y-65255524D01*
X166668093Y-65305639D01*
X166718216Y-65334577D01*
X166830019Y-65364534D01*
X166870942Y-65375500D01*
X166870943Y-65375500D01*
X170775500Y-65375500D01*
X170842539Y-65395185D01*
X170888294Y-65447989D01*
X170899500Y-65499500D01*
X170899500Y-70175830D01*
X170899499Y-70175848D01*
X170899499Y-70341554D01*
X170899498Y-70341554D01*
X170899499Y-70341557D01*
X170940423Y-70494285D01*
X170943434Y-70499500D01*
X170943435Y-70499501D01*
X170943435Y-70499502D01*
X171019477Y-70631212D01*
X171019481Y-70631217D01*
X171138349Y-70750085D01*
X171138355Y-70750090D01*
X187738895Y-87350631D01*
X187772380Y-87411954D01*
X187774572Y-87425710D01*
X187785001Y-87527797D01*
X187785001Y-87527799D01*
X187840185Y-87694331D01*
X187840187Y-87694336D01*
X187850150Y-87710489D01*
X187932288Y-87843656D01*
X188056344Y-87967712D01*
X188205666Y-88059814D01*
X188372203Y-88114999D01*
X188474991Y-88125500D01*
X189525008Y-88125499D01*
X189525016Y-88125498D01*
X189525019Y-88125498D01*
X189581302Y-88119748D01*
X189627797Y-88114999D01*
X189794334Y-88059814D01*
X189943656Y-87967712D01*
X190067712Y-87843656D01*
X190158229Y-87696902D01*
X190210177Y-87650179D01*
X190263768Y-87638000D01*
X191175500Y-87638000D01*
X191242539Y-87657685D01*
X191288294Y-87710489D01*
X191299500Y-87762000D01*
X191299500Y-88725001D01*
X191299501Y-88725019D01*
X191310000Y-88827796D01*
X191310001Y-88827799D01*
X191365185Y-88994331D01*
X191365186Y-88994334D01*
X191457288Y-89143656D01*
X191581344Y-89267712D01*
X191584991Y-89269962D01*
X191586967Y-89272158D01*
X191587011Y-89272193D01*
X191587005Y-89272200D01*
X191631715Y-89321909D01*
X191642938Y-89390872D01*
X191615094Y-89454954D01*
X191557025Y-89493810D01*
X191519894Y-89499500D01*
X133124500Y-89499500D01*
X133057461Y-89479815D01*
X133011706Y-89427011D01*
X133000500Y-89375500D01*
X133000500Y-59175435D01*
X133299500Y-59175435D01*
X133299500Y-59424565D01*
X133299500Y-59424571D01*
X133299501Y-59424575D01*
X133327634Y-59638271D01*
X133332018Y-59671565D01*
X133376000Y-59835706D01*
X133396498Y-59912207D01*
X133491830Y-60142361D01*
X133491837Y-60142376D01*
X133616400Y-60358126D01*
X133768060Y-60555774D01*
X133768066Y-60555781D01*
X133944218Y-60731933D01*
X133944225Y-60731939D01*
X134141873Y-60883599D01*
X134357623Y-61008162D01*
X134357638Y-61008169D01*
X134442001Y-61043113D01*
X134587793Y-61103502D01*
X134828435Y-61167982D01*
X135075435Y-61200500D01*
X135075442Y-61200500D01*
X135324558Y-61200500D01*
X135324565Y-61200500D01*
X135571565Y-61167982D01*
X135812207Y-61103502D01*
X136042373Y-61008164D01*
X136258127Y-60883599D01*
X136455776Y-60731938D01*
X136631938Y-60555776D01*
X136783599Y-60358127D01*
X136908164Y-60142373D01*
X137003502Y-59912207D01*
X137067982Y-59671565D01*
X137100500Y-59424565D01*
X137100500Y-59175435D01*
X137067982Y-58928435D01*
X137003502Y-58687793D01*
X136937459Y-58528352D01*
X136908169Y-58457638D01*
X136908162Y-58457623D01*
X136783599Y-58241873D01*
X136631939Y-58044225D01*
X136631933Y-58044218D01*
X136455781Y-57868066D01*
X136455774Y-57868060D01*
X136258126Y-57716400D01*
X136042376Y-57591837D01*
X136042361Y-57591830D01*
X135812207Y-57496498D01*
X135670072Y-57458413D01*
X135571565Y-57432018D01*
X135571564Y-57432017D01*
X135571561Y-57432017D01*
X135324575Y-57399501D01*
X135324570Y-57399500D01*
X135324565Y-57399500D01*
X135075435Y-57399500D01*
X135075429Y-57399500D01*
X135075424Y-57399501D01*
X134828438Y-57432017D01*
X134587792Y-57496498D01*
X134357638Y-57591830D01*
X134357623Y-57591837D01*
X134141873Y-57716400D01*
X133944225Y-57868060D01*
X133944218Y-57868066D01*
X133768066Y-58044218D01*
X133768060Y-58044225D01*
X133616400Y-58241873D01*
X133491837Y-58457623D01*
X133491830Y-58457638D01*
X133396498Y-58687792D01*
X133332017Y-58928438D01*
X133305312Y-59131287D01*
X133299500Y-59175435D01*
X133000500Y-59175435D01*
X133000500Y-51575466D01*
X133300000Y-51575466D01*
X133300000Y-51824533D01*
X133332508Y-52071463D01*
X133396973Y-52312049D01*
X133492283Y-52542148D01*
X133492288Y-52542159D01*
X133616813Y-52757841D01*
X133616819Y-52757849D01*
X133691400Y-52855045D01*
X134373474Y-52172971D01*
X134462087Y-52305590D01*
X134594410Y-52437913D01*
X134727027Y-52526525D01*
X134044953Y-53208598D01*
X134142150Y-53283180D01*
X134142158Y-53283186D01*
X134357840Y-53407711D01*
X134357851Y-53407716D01*
X134587950Y-53503026D01*
X134828536Y-53567491D01*
X135075466Y-53600000D01*
X135324534Y-53600000D01*
X135571463Y-53567491D01*
X135812049Y-53503026D01*
X136042148Y-53407716D01*
X136042159Y-53407711D01*
X136257855Y-53283178D01*
X136355045Y-53208600D01*
X136355045Y-53208597D01*
X135672972Y-52526525D01*
X135805590Y-52437913D01*
X135937913Y-52305590D01*
X136026524Y-52172972D01*
X136708597Y-52855045D01*
X136708600Y-52855045D01*
X136783178Y-52757855D01*
X136907711Y-52542159D01*
X136907716Y-52542148D01*
X137003026Y-52312049D01*
X137067491Y-52071463D01*
X137100000Y-51824533D01*
X137100000Y-51575466D01*
X137067491Y-51328536D01*
X137003026Y-51087950D01*
X136907716Y-50857851D01*
X136907711Y-50857840D01*
X136783186Y-50642158D01*
X136783180Y-50642150D01*
X136708598Y-50544953D01*
X136026524Y-51227026D01*
X135937913Y-51094410D01*
X135805590Y-50962087D01*
X135672971Y-50873473D01*
X136355045Y-50191400D01*
X136257849Y-50116819D01*
X136257841Y-50116813D01*
X136042159Y-49992288D01*
X136042148Y-49992283D01*
X135812049Y-49896973D01*
X135571463Y-49832508D01*
X135324534Y-49800000D01*
X135075466Y-49800000D01*
X134828536Y-49832508D01*
X134587950Y-49896973D01*
X134357851Y-49992283D01*
X134357847Y-49992285D01*
X134142143Y-50116823D01*
X134044953Y-50191399D01*
X134044953Y-50191400D01*
X134727027Y-50873474D01*
X134594410Y-50962087D01*
X134462087Y-51094410D01*
X134373474Y-51227027D01*
X133691400Y-50544953D01*
X133691399Y-50544953D01*
X133616823Y-50642143D01*
X133492285Y-50857847D01*
X133492283Y-50857851D01*
X133396973Y-51087950D01*
X133332508Y-51328536D01*
X133300000Y-51575466D01*
X133000500Y-51575466D01*
X133000500Y-45624500D01*
X133020185Y-45557461D01*
X133072989Y-45511706D01*
X133124500Y-45500500D01*
X201875500Y-45500500D01*
X201942539Y-45520185D01*
G37*
%TD.AperFunction*%
%TA.AperFunction,Conductor*%
G36*
X185458606Y-52220185D02*
G01*
X185479248Y-52236819D01*
X191010621Y-57768192D01*
X191044106Y-57829515D01*
X191039122Y-57899207D01*
X190997250Y-57955140D01*
X190955035Y-57975647D01*
X190875455Y-57996971D01*
X190645351Y-58092283D01*
X190645347Y-58092285D01*
X190429643Y-58216823D01*
X190332453Y-58291399D01*
X190332453Y-58291400D01*
X191014527Y-58973474D01*
X190881910Y-59062087D01*
X190749587Y-59194410D01*
X190660974Y-59327027D01*
X189978900Y-58644953D01*
X189978899Y-58644953D01*
X189904323Y-58742143D01*
X189779785Y-58957847D01*
X189779783Y-58957851D01*
X189684473Y-59187950D01*
X189620008Y-59428536D01*
X189587500Y-59675466D01*
X189587500Y-59924533D01*
X189620008Y-60171463D01*
X189684473Y-60412049D01*
X189779783Y-60642148D01*
X189779788Y-60642159D01*
X189904313Y-60857841D01*
X189904319Y-60857849D01*
X189978900Y-60955045D01*
X190660974Y-60272971D01*
X190749587Y-60405590D01*
X190881910Y-60537913D01*
X191014527Y-60626525D01*
X190332453Y-61308598D01*
X190429650Y-61383180D01*
X190429658Y-61383186D01*
X190645340Y-61507711D01*
X190645351Y-61507716D01*
X190875450Y-61603026D01*
X191116036Y-61667491D01*
X191362966Y-61700000D01*
X191612034Y-61700000D01*
X191858963Y-61667491D01*
X192099549Y-61603026D01*
X192329648Y-61507716D01*
X192329659Y-61507711D01*
X192545355Y-61383178D01*
X192642545Y-61308600D01*
X192642545Y-61308597D01*
X191960472Y-60626525D01*
X192093090Y-60537913D01*
X192225413Y-60405590D01*
X192314025Y-60272972D01*
X192996097Y-60955045D01*
X192996100Y-60955045D01*
X193070678Y-60857855D01*
X193195211Y-60642159D01*
X193195216Y-60642148D01*
X193290526Y-60412049D01*
X193311851Y-60332465D01*
X193348216Y-60272805D01*
X193411063Y-60242276D01*
X193480439Y-60250571D01*
X193519307Y-60276878D01*
X200863181Y-67620752D01*
X200896666Y-67682075D01*
X200899500Y-67708433D01*
X200899500Y-79699903D01*
X200879815Y-79766942D01*
X200863181Y-79787584D01*
X195856984Y-84793780D01*
X195795661Y-84827265D01*
X195725969Y-84822281D01*
X195670036Y-84780409D01*
X195645619Y-84714945D01*
X195651597Y-84667095D01*
X195689505Y-84552697D01*
X195689506Y-84552690D01*
X195699999Y-84449986D01*
X195700000Y-84449973D01*
X195700000Y-84112500D01*
X191300001Y-84112500D01*
X191300001Y-84449986D01*
X191310494Y-84552697D01*
X191365641Y-84719119D01*
X191365643Y-84719124D01*
X191457684Y-84868345D01*
X191581654Y-84992315D01*
X191626475Y-85019961D01*
X191673199Y-85071909D01*
X191684422Y-85140872D01*
X191656578Y-85204954D01*
X191598510Y-85243810D01*
X191561378Y-85249500D01*
X190313362Y-85249500D01*
X190246323Y-85229815D01*
X190225681Y-85213181D01*
X190225000Y-85212500D01*
X189124000Y-85212500D01*
X189056961Y-85192815D01*
X189011206Y-85140011D01*
X189000000Y-85088500D01*
X189000000Y-84962500D01*
X188874000Y-84962500D01*
X188806961Y-84942815D01*
X188761206Y-84890011D01*
X188750000Y-84838500D01*
X188750000Y-84712500D01*
X189250000Y-84712500D01*
X190224999Y-84712500D01*
X190224999Y-84575028D01*
X190224998Y-84575013D01*
X190214505Y-84472302D01*
X190159358Y-84305880D01*
X190159356Y-84305875D01*
X190067315Y-84156654D01*
X189943345Y-84032684D01*
X189794124Y-83940643D01*
X189794119Y-83940641D01*
X189627697Y-83885494D01*
X189627690Y-83885493D01*
X189524986Y-83875000D01*
X189250000Y-83875000D01*
X189250000Y-84712500D01*
X188750000Y-84712500D01*
X188750000Y-83906335D01*
X188651847Y-83865478D01*
X188643167Y-83858458D01*
X188632461Y-83855315D01*
X188616490Y-83836883D01*
X188597520Y-83821542D01*
X188594013Y-83810943D01*
X188586706Y-83802511D01*
X188578036Y-83762661D01*
X188575571Y-83755209D01*
X188576028Y-83753429D01*
X188575500Y-83751000D01*
X188575500Y-81362596D01*
X188595185Y-81295557D01*
X188611815Y-81274919D01*
X188724916Y-81161817D01*
X188786239Y-81128333D01*
X188812597Y-81125499D01*
X189525002Y-81125499D01*
X189525008Y-81125499D01*
X189627797Y-81114999D01*
X189794334Y-81059814D01*
X189943656Y-80967712D01*
X190067712Y-80843656D01*
X190158229Y-80696902D01*
X190210177Y-80650179D01*
X190263768Y-80638000D01*
X191175500Y-80638000D01*
X191242539Y-80657685D01*
X191288294Y-80710489D01*
X191299500Y-80762000D01*
X191299500Y-81725001D01*
X191299501Y-81725019D01*
X191310000Y-81827796D01*
X191310001Y-81827799D01*
X191365185Y-81994331D01*
X191365186Y-81994334D01*
X191457288Y-82143656D01*
X191581344Y-82267712D01*
X191730666Y-82359814D01*
X191799302Y-82382557D01*
X191856746Y-82422330D01*
X191883569Y-82486845D01*
X191871254Y-82555621D01*
X191823711Y-82606821D01*
X191799301Y-82617969D01*
X191730880Y-82640641D01*
X191730875Y-82640643D01*
X191581654Y-82732684D01*
X191457684Y-82856654D01*
X191365643Y-83005875D01*
X191365641Y-83005880D01*
X191310494Y-83172302D01*
X191310493Y-83172309D01*
X191300000Y-83275013D01*
X191300000Y-83612500D01*
X195699999Y-83612500D01*
X195699999Y-83275028D01*
X195699998Y-83275013D01*
X195689505Y-83172302D01*
X195634358Y-83005880D01*
X195634356Y-83005875D01*
X195542315Y-82856654D01*
X195418345Y-82732684D01*
X195269124Y-82640643D01*
X195269119Y-82640641D01*
X195200698Y-82617969D01*
X195143253Y-82578196D01*
X195116430Y-82513681D01*
X195128745Y-82444905D01*
X195176288Y-82393705D01*
X195200691Y-82382559D01*
X195269334Y-82359814D01*
X195418656Y-82267712D01*
X195542712Y-82143656D01*
X195634814Y-81994334D01*
X195689999Y-81827797D01*
X195689999Y-81827796D01*
X195691590Y-81822996D01*
X195731363Y-81765551D01*
X195795879Y-81738728D01*
X195809296Y-81738000D01*
X196775831Y-81738000D01*
X196775847Y-81738001D01*
X196783443Y-81738001D01*
X196941554Y-81738001D01*
X196941557Y-81738001D01*
X197094285Y-81697077D01*
X197153306Y-81663001D01*
X197231216Y-81618020D01*
X197343020Y-81506216D01*
X197343020Y-81506214D01*
X197353224Y-81496011D01*
X197353228Y-81496006D01*
X198396437Y-80452796D01*
X198457758Y-80419313D01*
X198522433Y-80422547D01*
X198648632Y-80463553D01*
X198736110Y-80477408D01*
X198881903Y-80500500D01*
X198881908Y-80500500D01*
X199118097Y-80500500D01*
X199351368Y-80463553D01*
X199392824Y-80450083D01*
X199575992Y-80390568D01*
X199786433Y-80283343D01*
X199977510Y-80144517D01*
X200144517Y-79977510D01*
X200283343Y-79786433D01*
X200390568Y-79575992D01*
X200463553Y-79351368D01*
X200482563Y-79231344D01*
X200500500Y-79118097D01*
X200500500Y-78881902D01*
X200463553Y-78648631D01*
X200429689Y-78544412D01*
X200390568Y-78424008D01*
X200390566Y-78424005D01*
X200390566Y-78424003D01*
X200283342Y-78213566D01*
X200144517Y-78022490D01*
X199977510Y-77855483D01*
X199786433Y-77716657D01*
X199575996Y-77609433D01*
X199351368Y-77536446D01*
X199118097Y-77499500D01*
X199118092Y-77499500D01*
X198881908Y-77499500D01*
X198881903Y-77499500D01*
X198648631Y-77536446D01*
X198424003Y-77609433D01*
X198213566Y-77716657D01*
X198210171Y-77719124D01*
X198022490Y-77855483D01*
X198022488Y-77855485D01*
X198022487Y-77855485D01*
X197855485Y-78022487D01*
X197855485Y-78022488D01*
X197855483Y-78022490D01*
X197810535Y-78084356D01*
X197716657Y-78213566D01*
X197609433Y-78424003D01*
X197536446Y-78648631D01*
X197499500Y-78881902D01*
X197499500Y-79118097D01*
X197536447Y-79351369D01*
X197536447Y-79351372D01*
X197577450Y-79477564D01*
X197579445Y-79547405D01*
X197547200Y-79603563D01*
X196650084Y-80500681D01*
X196588761Y-80534166D01*
X196562403Y-80537000D01*
X195809296Y-80537000D01*
X195742257Y-80517315D01*
X195696502Y-80464511D01*
X195691590Y-80452004D01*
X195663991Y-80368716D01*
X195634814Y-80280666D01*
X195542712Y-80131344D01*
X195418656Y-80007288D01*
X195269334Y-79915186D01*
X195102797Y-79860001D01*
X195102795Y-79860000D01*
X195000016Y-79849500D01*
X195000009Y-79849500D01*
X193112597Y-79849500D01*
X193083156Y-79840855D01*
X193053170Y-79834332D01*
X193048154Y-79830577D01*
X193045558Y-79829815D01*
X193024916Y-79813181D01*
X192887590Y-79675855D01*
X192887588Y-79675852D01*
X192768717Y-79556981D01*
X192768716Y-79556980D01*
X192681904Y-79506860D01*
X192681904Y-79506859D01*
X192681900Y-79506858D01*
X192631785Y-79477923D01*
X192479057Y-79436999D01*
X192320943Y-79436999D01*
X192313347Y-79436999D01*
X192313331Y-79437000D01*
X190263768Y-79437000D01*
X190196729Y-79417315D01*
X190158229Y-79378097D01*
X190141745Y-79351372D01*
X190067712Y-79231344D01*
X189943656Y-79107288D01*
X189940342Y-79105243D01*
X189938546Y-79103248D01*
X189937989Y-79102807D01*
X189938064Y-79102711D01*
X189893618Y-79053297D01*
X189882397Y-78984334D01*
X189910240Y-78920252D01*
X189940348Y-78894165D01*
X189943342Y-78892318D01*
X190067315Y-78768345D01*
X190159356Y-78619124D01*
X190159358Y-78619119D01*
X190214505Y-78452697D01*
X190214506Y-78452690D01*
X190224999Y-78349986D01*
X190225000Y-78349973D01*
X190225000Y-78212500D01*
X187775001Y-78212500D01*
X187775001Y-78349986D01*
X187785494Y-78452697D01*
X187840641Y-78619119D01*
X187840643Y-78619124D01*
X187932684Y-78768345D01*
X188056655Y-78892316D01*
X188056659Y-78892319D01*
X188059656Y-78894168D01*
X188061279Y-78895972D01*
X188062323Y-78896798D01*
X188062181Y-78896976D01*
X188106381Y-78946116D01*
X188117602Y-79015079D01*
X188089759Y-79079161D01*
X188059661Y-79105241D01*
X188056349Y-79107283D01*
X188056343Y-79107288D01*
X187932289Y-79231342D01*
X187840187Y-79380663D01*
X187840186Y-79380666D01*
X187785001Y-79547203D01*
X187785001Y-79547204D01*
X187785000Y-79547204D01*
X187774500Y-79649983D01*
X187774500Y-80362402D01*
X187754815Y-80429441D01*
X187738181Y-80450083D01*
X187494481Y-80693782D01*
X187494480Y-80693784D01*
X187451179Y-80768784D01*
X187415423Y-80830715D01*
X187374499Y-80983443D01*
X187374499Y-80983445D01*
X187374499Y-81151546D01*
X187374500Y-81151559D01*
X187374500Y-84988402D01*
X187354815Y-85055441D01*
X187302011Y-85101196D01*
X187232853Y-85111140D01*
X187169297Y-85082115D01*
X187162819Y-85076083D01*
X179661749Y-77575013D01*
X187775000Y-77575013D01*
X187775000Y-77712500D01*
X188750000Y-77712500D01*
X189250000Y-77712500D01*
X190224999Y-77712500D01*
X190224999Y-77575028D01*
X190224998Y-77575013D01*
X190214505Y-77472302D01*
X190207110Y-77449986D01*
X191300001Y-77449986D01*
X191310494Y-77552697D01*
X191365641Y-77719119D01*
X191365643Y-77719124D01*
X191457684Y-77868345D01*
X191581654Y-77992315D01*
X191730875Y-78084356D01*
X191730880Y-78084358D01*
X191897302Y-78139505D01*
X191897309Y-78139506D01*
X192000019Y-78149999D01*
X193249999Y-78149999D01*
X193750000Y-78149999D01*
X194999972Y-78149999D01*
X194999986Y-78149998D01*
X195102697Y-78139505D01*
X195269119Y-78084358D01*
X195269124Y-78084356D01*
X195418345Y-77992315D01*
X195542315Y-77868345D01*
X195634356Y-77719124D01*
X195634358Y-77719119D01*
X195689505Y-77552697D01*
X195689506Y-77552690D01*
X195699999Y-77449986D01*
X195700000Y-77449973D01*
X195700000Y-77112500D01*
X193750000Y-77112500D01*
X193750000Y-78149999D01*
X193249999Y-78149999D01*
X193250000Y-78149998D01*
X193250000Y-77112500D01*
X191300001Y-77112500D01*
X191300001Y-77449986D01*
X190207110Y-77449986D01*
X190159358Y-77305880D01*
X190159356Y-77305875D01*
X190067315Y-77156654D01*
X189943345Y-77032684D01*
X189794124Y-76940643D01*
X189794119Y-76940641D01*
X189627697Y-76885494D01*
X189627690Y-76885493D01*
X189524986Y-76875000D01*
X189250000Y-76875000D01*
X189250000Y-77712500D01*
X188750000Y-77712500D01*
X188750000Y-76875000D01*
X188475029Y-76875000D01*
X188475012Y-76875001D01*
X188372302Y-76885494D01*
X188205880Y-76940641D01*
X188205875Y-76940643D01*
X188056654Y-77032684D01*
X187932684Y-77156654D01*
X187840643Y-77305875D01*
X187840641Y-77305880D01*
X187785494Y-77472302D01*
X187785493Y-77472309D01*
X187775000Y-77575013D01*
X179661749Y-77575013D01*
X172136819Y-70050083D01*
X172103334Y-69988760D01*
X172100500Y-69962402D01*
X172100500Y-65482781D01*
X172106711Y-65461627D01*
X172108250Y-65439630D01*
X172116363Y-65428756D01*
X172120185Y-65415742D01*
X172136846Y-65401304D01*
X172150034Y-65383631D01*
X172166483Y-65375624D01*
X172172989Y-65369987D01*
X172180984Y-65366667D01*
X172186594Y-65364564D01*
X172298507Y-65334577D01*
X172348626Y-65305639D01*
X172435438Y-65255520D01*
X172547242Y-65143716D01*
X172547242Y-65143714D01*
X172557450Y-65133507D01*
X172557452Y-65133504D01*
X172733505Y-64957451D01*
X172733510Y-64957447D01*
X172742995Y-64947962D01*
X172758163Y-64939678D01*
X172765727Y-64934227D01*
X172765735Y-64934223D01*
X172766253Y-64935260D01*
X172804317Y-64914474D01*
X172869683Y-64917932D01*
X173012247Y-64965174D01*
X173113323Y-64975500D01*
X173711676Y-64975499D01*
X173711684Y-64975498D01*
X173711687Y-64975498D01*
X173767030Y-64969844D01*
X173812753Y-64965174D01*
X173976516Y-64910908D01*
X174123350Y-64820340D01*
X174245340Y-64698350D01*
X174269362Y-64659404D01*
X174321310Y-64612679D01*
X174374901Y-64600500D01*
X175183331Y-64600500D01*
X175183347Y-64600501D01*
X175190943Y-64600501D01*
X175349054Y-64600501D01*
X175349057Y-64600501D01*
X175501785Y-64559577D01*
X175551904Y-64530639D01*
X175638716Y-64480520D01*
X175750520Y-64368716D01*
X175750520Y-64368714D01*
X175760728Y-64358507D01*
X175760730Y-64358504D01*
X177533016Y-62586218D01*
X177559943Y-62571514D01*
X177585762Y-62554922D01*
X177591962Y-62554030D01*
X177594339Y-62552733D01*
X177620697Y-62549899D01*
X177649302Y-62549899D01*
X177716341Y-62569584D01*
X177736983Y-62586218D01*
X178015139Y-62864374D01*
X178015149Y-62864385D01*
X178019479Y-62868715D01*
X178019480Y-62868716D01*
X178131284Y-62980520D01*
X178207462Y-63024501D01*
X178268215Y-63059577D01*
X178420943Y-63100501D01*
X178420946Y-63100501D01*
X178586653Y-63100501D01*
X178586669Y-63100500D01*
X179254092Y-63100500D01*
X179321131Y-63120185D01*
X179359636Y-63164271D01*
X179361395Y-63163187D01*
X179365185Y-63169331D01*
X179365186Y-63169334D01*
X179457288Y-63318656D01*
X179581344Y-63442712D01*
X179730666Y-63534814D01*
X179897203Y-63589999D01*
X179999991Y-63600500D01*
X181000008Y-63600499D01*
X181000016Y-63600498D01*
X181000019Y-63600498D01*
X181056302Y-63594748D01*
X181102797Y-63589999D01*
X181269334Y-63534814D01*
X181418656Y-63442712D01*
X181542712Y-63318656D01*
X181634814Y-63169334D01*
X181634815Y-63169331D01*
X181638605Y-63163187D01*
X181640399Y-63164293D01*
X181679687Y-63119663D01*
X181745908Y-63100500D01*
X185699903Y-63100500D01*
X185766942Y-63120185D01*
X185787584Y-63136819D01*
X187363181Y-64712416D01*
X187396666Y-64773739D01*
X187399500Y-64800097D01*
X187399500Y-71813330D01*
X187399499Y-71813348D01*
X187399499Y-71979054D01*
X187399498Y-71979054D01*
X187399499Y-71979057D01*
X187440423Y-72131785D01*
X187469036Y-72181344D01*
X187469036Y-72181345D01*
X187519475Y-72268709D01*
X187519481Y-72268717D01*
X187638349Y-72387585D01*
X187638355Y-72387590D01*
X187825681Y-72574916D01*
X187859166Y-72636239D01*
X187862000Y-72662597D01*
X187862000Y-73375001D01*
X187862001Y-73375019D01*
X187872500Y-73477796D01*
X187872501Y-73477799D01*
X187927685Y-73644331D01*
X187927687Y-73644336D01*
X187937650Y-73660489D01*
X188019788Y-73793656D01*
X188143844Y-73917712D01*
X188293166Y-74009814D01*
X188459703Y-74064999D01*
X188562491Y-74075500D01*
X189612508Y-74075499D01*
X189612516Y-74075498D01*
X189612519Y-74075498D01*
X189668802Y-74069748D01*
X189715297Y-74064999D01*
X189881834Y-74009814D01*
X190031156Y-73917712D01*
X190155212Y-73793656D01*
X190245729Y-73646902D01*
X190297677Y-73600179D01*
X190351268Y-73588000D01*
X191263000Y-73588000D01*
X191330039Y-73607685D01*
X191375794Y-73660489D01*
X191387000Y-73712000D01*
X191387000Y-74675001D01*
X191387001Y-74675019D01*
X191397500Y-74777796D01*
X191397501Y-74777799D01*
X191452685Y-74944331D01*
X191452686Y-74944334D01*
X191544788Y-75093656D01*
X191668844Y-75217712D01*
X191818166Y-75309814D01*
X191922885Y-75344514D01*
X191980328Y-75384285D01*
X192007152Y-75448801D01*
X191994837Y-75517577D01*
X191947295Y-75568777D01*
X191903729Y-75583184D01*
X191903921Y-75584077D01*
X191897307Y-75585492D01*
X191730880Y-75640641D01*
X191730875Y-75640643D01*
X191581654Y-75732684D01*
X191457684Y-75856654D01*
X191365643Y-76005875D01*
X191365641Y-76005880D01*
X191310494Y-76172302D01*
X191310493Y-76172309D01*
X191300000Y-76275013D01*
X191300000Y-76612500D01*
X195699999Y-76612500D01*
X195699999Y-76275028D01*
X195699998Y-76275013D01*
X195689505Y-76172302D01*
X195634358Y-76005880D01*
X195634356Y-76005875D01*
X195542315Y-75856654D01*
X195418345Y-75732684D01*
X195269124Y-75640643D01*
X195269121Y-75640642D01*
X195164561Y-75605994D01*
X195107117Y-75566221D01*
X195080294Y-75501705D01*
X195092609Y-75432929D01*
X195140153Y-75381729D01*
X195183866Y-75367279D01*
X195183681Y-75366415D01*
X195190291Y-75364999D01*
X195190297Y-75364999D01*
X195356834Y-75309814D01*
X195506156Y-75217712D01*
X195630212Y-75093656D01*
X195722314Y-74944334D01*
X195777499Y-74777797D01*
X195777499Y-74777796D01*
X195779090Y-74772996D01*
X195818863Y-74715551D01*
X195883379Y-74688728D01*
X195896796Y-74688000D01*
X196825831Y-74688000D01*
X196825847Y-74688001D01*
X196833443Y-74688001D01*
X196991554Y-74688001D01*
X196991557Y-74688001D01*
X197144285Y-74647077D01*
X197194404Y-74618139D01*
X197281216Y-74568020D01*
X197393020Y-74456216D01*
X197393020Y-74456214D01*
X197403228Y-74446007D01*
X197403230Y-74446004D01*
X198396437Y-73452796D01*
X198457758Y-73419313D01*
X198522433Y-73422547D01*
X198648632Y-73463553D01*
X198736110Y-73477408D01*
X198881903Y-73500500D01*
X198881908Y-73500500D01*
X199118097Y-73500500D01*
X199351368Y-73463553D01*
X199384468Y-73452798D01*
X199575992Y-73390568D01*
X199786433Y-73283343D01*
X199977510Y-73144517D01*
X200144517Y-72977510D01*
X200283343Y-72786433D01*
X200390568Y-72575992D01*
X200463553Y-72351368D01*
X200490482Y-72181345D01*
X200500500Y-72118097D01*
X200500500Y-71881902D01*
X200463553Y-71648631D01*
X200390566Y-71424003D01*
X200283342Y-71213566D01*
X200144517Y-71022490D01*
X199977510Y-70855483D01*
X199786433Y-70716657D01*
X199575996Y-70609433D01*
X199351368Y-70536446D01*
X199118097Y-70499500D01*
X199118092Y-70499500D01*
X198881908Y-70499500D01*
X198881903Y-70499500D01*
X198648631Y-70536446D01*
X198424003Y-70609433D01*
X198213566Y-70716657D01*
X198114684Y-70788500D01*
X198022490Y-70855483D01*
X198022488Y-70855485D01*
X198022487Y-70855485D01*
X197855485Y-71022487D01*
X197855485Y-71022488D01*
X197855483Y-71022490D01*
X197843851Y-71038500D01*
X197716657Y-71213566D01*
X197609433Y-71424003D01*
X197536446Y-71648631D01*
X197499500Y-71881902D01*
X197499500Y-72118097D01*
X197536447Y-72351369D01*
X197536447Y-72351372D01*
X197577450Y-72477564D01*
X197579445Y-72547405D01*
X197547200Y-72603563D01*
X196700084Y-73450681D01*
X196638761Y-73484166D01*
X196612403Y-73487000D01*
X195896796Y-73487000D01*
X195829757Y-73467315D01*
X195784002Y-73414511D01*
X195779090Y-73402004D01*
X195739769Y-73283342D01*
X195722314Y-73230666D01*
X195630212Y-73081344D01*
X195506156Y-72957288D01*
X195356834Y-72865186D01*
X195190297Y-72810001D01*
X195190295Y-72810000D01*
X195087516Y-72799500D01*
X195087509Y-72799500D01*
X193200097Y-72799500D01*
X193170656Y-72790855D01*
X193140670Y-72784332D01*
X193135654Y-72780577D01*
X193133058Y-72779815D01*
X193112416Y-72763181D01*
X192975090Y-72625855D01*
X192975088Y-72625852D01*
X192856217Y-72506981D01*
X192856209Y-72506975D01*
X192749690Y-72445477D01*
X192749689Y-72445476D01*
X192749689Y-72445477D01*
X192719285Y-72427923D01*
X192566557Y-72386999D01*
X192408443Y-72386999D01*
X192400847Y-72386999D01*
X192400831Y-72387000D01*
X190351268Y-72387000D01*
X190284229Y-72367315D01*
X190245729Y-72328097D01*
X190155212Y-72181344D01*
X190031156Y-72057288D01*
X190027842Y-72055243D01*
X190026046Y-72053248D01*
X190025489Y-72052807D01*
X190025564Y-72052711D01*
X189981118Y-72003297D01*
X189969897Y-71934334D01*
X189997740Y-71870252D01*
X190027848Y-71844165D01*
X190030842Y-71842318D01*
X190154815Y-71718345D01*
X190246856Y-71569124D01*
X190246858Y-71569119D01*
X190302005Y-71402697D01*
X190302006Y-71402690D01*
X190312499Y-71299986D01*
X190312500Y-71299973D01*
X190312500Y-71162500D01*
X189211500Y-71162500D01*
X189144461Y-71142815D01*
X189098706Y-71090011D01*
X189087500Y-71038500D01*
X189087500Y-70912500D01*
X188961500Y-70912500D01*
X188894461Y-70892815D01*
X188848706Y-70840011D01*
X188837500Y-70788500D01*
X188837500Y-70662500D01*
X189337500Y-70662500D01*
X190312499Y-70662500D01*
X190312499Y-70525028D01*
X190312498Y-70525013D01*
X190302005Y-70422302D01*
X190294610Y-70399986D01*
X191387501Y-70399986D01*
X191397994Y-70502697D01*
X191453141Y-70669119D01*
X191453143Y-70669124D01*
X191545184Y-70818345D01*
X191669154Y-70942315D01*
X191818375Y-71034356D01*
X191818380Y-71034358D01*
X191984802Y-71089505D01*
X191984809Y-71089506D01*
X192087519Y-71099999D01*
X193337499Y-71099999D01*
X193837500Y-71099999D01*
X195087472Y-71099999D01*
X195087486Y-71099998D01*
X195190197Y-71089505D01*
X195356619Y-71034358D01*
X195356624Y-71034356D01*
X195505845Y-70942315D01*
X195629815Y-70818345D01*
X195721856Y-70669124D01*
X195721858Y-70669119D01*
X195777005Y-70502697D01*
X195777006Y-70502690D01*
X195787499Y-70399986D01*
X195787500Y-70399973D01*
X195787500Y-70062500D01*
X193837500Y-70062500D01*
X193837500Y-71099999D01*
X193337499Y-71099999D01*
X193337500Y-71099998D01*
X193337500Y-70062500D01*
X191387501Y-70062500D01*
X191387501Y-70399986D01*
X190294610Y-70399986D01*
X190246858Y-70255880D01*
X190246856Y-70255875D01*
X190154815Y-70106654D01*
X190030845Y-69982684D01*
X189881624Y-69890643D01*
X189881619Y-69890641D01*
X189715197Y-69835494D01*
X189715190Y-69835493D01*
X189612486Y-69825000D01*
X189337500Y-69825000D01*
X189337500Y-70662500D01*
X188837500Y-70662500D01*
X188837500Y-69865326D01*
X188688164Y-69819557D01*
X188673877Y-69810135D01*
X188657461Y-69805315D01*
X188645318Y-69791301D01*
X188629835Y-69781091D01*
X188622909Y-69765440D01*
X188611706Y-69752511D01*
X188606404Y-69728139D01*
X188601562Y-69717197D01*
X188602589Y-69710604D01*
X188600500Y-69701000D01*
X188600500Y-69225013D01*
X191387500Y-69225013D01*
X191387500Y-69562500D01*
X193337500Y-69562500D01*
X193837500Y-69562500D01*
X195787499Y-69562500D01*
X195787499Y-69225028D01*
X195787498Y-69225013D01*
X195777005Y-69122302D01*
X195721858Y-68955880D01*
X195721856Y-68955875D01*
X195629815Y-68806654D01*
X195505845Y-68682684D01*
X195356624Y-68590643D01*
X195356619Y-68590641D01*
X195190197Y-68535494D01*
X195190190Y-68535493D01*
X195087486Y-68525000D01*
X193837500Y-68525000D01*
X193837500Y-69562500D01*
X193337500Y-69562500D01*
X193337500Y-68525000D01*
X192087528Y-68525000D01*
X192087512Y-68525001D01*
X191984802Y-68535494D01*
X191818380Y-68590641D01*
X191818375Y-68590643D01*
X191669154Y-68682684D01*
X191545184Y-68806654D01*
X191453143Y-68955875D01*
X191453141Y-68955880D01*
X191397994Y-69122302D01*
X191397993Y-69122309D01*
X191387500Y-69225013D01*
X188600500Y-69225013D01*
X188600500Y-64420945D01*
X188600499Y-64420941D01*
X188586506Y-64368716D01*
X188559577Y-64268215D01*
X188529097Y-64215423D01*
X188529097Y-64215422D01*
X188480522Y-64131287D01*
X188480521Y-64131286D01*
X188480520Y-64131284D01*
X188368716Y-64019480D01*
X188368715Y-64019479D01*
X188364385Y-64015149D01*
X188364374Y-64015139D01*
X186487590Y-62138355D01*
X186487588Y-62138352D01*
X186368717Y-62019481D01*
X186368716Y-62019480D01*
X186262995Y-61958442D01*
X186262993Y-61958441D01*
X186231785Y-61940423D01*
X186231784Y-61940422D01*
X186231783Y-61940422D01*
X186175881Y-61925443D01*
X186079057Y-61899499D01*
X185920943Y-61899499D01*
X185913347Y-61899499D01*
X185913331Y-61899500D01*
X181745908Y-61899500D01*
X181678869Y-61879815D01*
X181640363Y-61835728D01*
X181638605Y-61836813D01*
X181634814Y-61830666D01*
X181542712Y-61681344D01*
X181449049Y-61587681D01*
X181415564Y-61526358D01*
X181420548Y-61456666D01*
X181449049Y-61412319D01*
X181492284Y-61369084D01*
X181542712Y-61318656D01*
X181634814Y-61169334D01*
X181689999Y-61002797D01*
X181700500Y-60900009D01*
X181700499Y-60099992D01*
X181689999Y-59997203D01*
X181634814Y-59830666D01*
X181623974Y-59813092D01*
X181576736Y-59736506D01*
X181576735Y-59736505D01*
X181542712Y-59681344D01*
X181418656Y-59557288D01*
X181269334Y-59465186D01*
X181102797Y-59410001D01*
X181102795Y-59410000D01*
X181000010Y-59399500D01*
X179999998Y-59399500D01*
X179999980Y-59399501D01*
X179897203Y-59410000D01*
X179897200Y-59410001D01*
X179730668Y-59465185D01*
X179730663Y-59465187D01*
X179581342Y-59557289D01*
X179457289Y-59681342D01*
X179457288Y-59681344D01*
X179365191Y-59830659D01*
X179361395Y-59836813D01*
X179359600Y-59835706D01*
X179355014Y-59840916D01*
X179347805Y-59856703D01*
X179332406Y-59866598D01*
X179320313Y-59880337D01*
X179303425Y-59885224D01*
X179289027Y-59894477D01*
X179254092Y-59899500D01*
X179057875Y-59899500D01*
X178990836Y-59879815D01*
X178945081Y-59827011D01*
X178935137Y-59757853D01*
X178941693Y-59732167D01*
X178951291Y-59706433D01*
X178984691Y-59616883D01*
X178991100Y-59557273D01*
X178991099Y-58902728D01*
X178984691Y-58843117D01*
X178934396Y-58708269D01*
X178905229Y-58669307D01*
X178880813Y-58603848D01*
X178895664Y-58535575D01*
X178905221Y-58520702D01*
X178934396Y-58481731D01*
X178984691Y-58346883D01*
X178991100Y-58287273D01*
X178991099Y-57632728D01*
X178984691Y-57573117D01*
X178981212Y-57563790D01*
X178941693Y-57457833D01*
X178936709Y-57388141D01*
X178970194Y-57326818D01*
X179031517Y-57293334D01*
X179057875Y-57290500D01*
X179377770Y-57290500D01*
X179444809Y-57310185D01*
X179465450Y-57326818D01*
X179581344Y-57442712D01*
X179730666Y-57534814D01*
X179897203Y-57589999D01*
X179999991Y-57600500D01*
X181000008Y-57600499D01*
X181000016Y-57600498D01*
X181000019Y-57600498D01*
X181081720Y-57592152D01*
X181102797Y-57589999D01*
X181269334Y-57534814D01*
X181418656Y-57442712D01*
X181542712Y-57318656D01*
X181634814Y-57169334D01*
X181689999Y-57002797D01*
X181700500Y-56900009D01*
X181700499Y-56144499D01*
X181720183Y-56077461D01*
X181772987Y-56031706D01*
X181824499Y-56020500D01*
X182293442Y-56020500D01*
X182360481Y-56040185D01*
X182406236Y-56092989D01*
X182415915Y-56125102D01*
X182443407Y-56298680D01*
X182505449Y-56489626D01*
X182557054Y-56590905D01*
X182596595Y-56668508D01*
X182714603Y-56830932D01*
X182856568Y-56972897D01*
X183018992Y-57090905D01*
X183103507Y-57133967D01*
X183197873Y-57182050D01*
X183197875Y-57182050D01*
X183197878Y-57182052D01*
X183388820Y-57244093D01*
X183587116Y-57275500D01*
X183587117Y-57275500D01*
X183787883Y-57275500D01*
X183787884Y-57275500D01*
X183986180Y-57244093D01*
X184177122Y-57182052D01*
X184356008Y-57090905D01*
X184518432Y-56972897D01*
X184660397Y-56830932D01*
X184778405Y-56668508D01*
X184869552Y-56489622D01*
X184931593Y-56298680D01*
X184963000Y-56100384D01*
X184963000Y-55899616D01*
X184931593Y-55701320D01*
X184869552Y-55510378D01*
X184869550Y-55510375D01*
X184869550Y-55510373D01*
X184778404Y-55331491D01*
X184660397Y-55169068D01*
X184518432Y-55027103D01*
X184356008Y-54909095D01*
X184177126Y-54817949D01*
X183986180Y-54755907D01*
X183787884Y-54724500D01*
X183587116Y-54724500D01*
X183496615Y-54738834D01*
X183388819Y-54755907D01*
X183382021Y-54758116D01*
X183211780Y-54813430D01*
X183209455Y-54813798D01*
X183208402Y-54814476D01*
X183173476Y-54819497D01*
X183173467Y-54819499D01*
X183028443Y-54819499D01*
X183028439Y-54819499D01*
X183020832Y-54819500D01*
X183020831Y-54819499D01*
X183020831Y-54819500D01*
X181820862Y-54819500D01*
X181753823Y-54799815D01*
X181733181Y-54783181D01*
X181700000Y-54750000D01*
X179300001Y-54750000D01*
X179266820Y-54783181D01*
X179239892Y-54797884D01*
X179214074Y-54814477D01*
X179207873Y-54815368D01*
X179205497Y-54816666D01*
X179179139Y-54819500D01*
X179057875Y-54819500D01*
X178990836Y-54799815D01*
X178945081Y-54747011D01*
X178935137Y-54677853D01*
X178941693Y-54652167D01*
X178955817Y-54614297D01*
X178984691Y-54536883D01*
X178991100Y-54477273D01*
X178991099Y-53822728D01*
X178984691Y-53763117D01*
X178984320Y-53762123D01*
X178935764Y-53631938D01*
X178934396Y-53628269D01*
X178905229Y-53589307D01*
X178880813Y-53523848D01*
X178895664Y-53455575D01*
X178905221Y-53440702D01*
X178934396Y-53401731D01*
X178984691Y-53266883D01*
X178991100Y-53207273D01*
X178991100Y-53025100D01*
X178993650Y-53016414D01*
X178992362Y-53007453D01*
X179003340Y-52983412D01*
X179010785Y-52958061D01*
X179017625Y-52952133D01*
X179021387Y-52943897D01*
X179043621Y-52929607D01*
X179063589Y-52912306D01*
X179074103Y-52910018D01*
X179080165Y-52906123D01*
X179115100Y-52901100D01*
X179187966Y-52901100D01*
X179255005Y-52920785D01*
X179300760Y-52973589D01*
X179309220Y-52999147D01*
X179310002Y-53002801D01*
X179346693Y-53113526D01*
X179365186Y-53169334D01*
X179451641Y-53309501D01*
X179457289Y-53318657D01*
X179551304Y-53412672D01*
X179584789Y-53473995D01*
X179579805Y-53543687D01*
X179551305Y-53588034D01*
X179457682Y-53681657D01*
X179365643Y-53830875D01*
X179365641Y-53830880D01*
X179310494Y-53997302D01*
X179310493Y-53997309D01*
X179300000Y-54100013D01*
X179300000Y-54250000D01*
X181699999Y-54250000D01*
X181699999Y-54100028D01*
X181699998Y-54100013D01*
X181689505Y-53997302D01*
X181634358Y-53830880D01*
X181634356Y-53830875D01*
X181542315Y-53681654D01*
X181448695Y-53588034D01*
X181415210Y-53526711D01*
X181420194Y-53457019D01*
X181448691Y-53412676D01*
X181542712Y-53318656D01*
X181634814Y-53169334D01*
X181689999Y-53002797D01*
X181700500Y-52900009D01*
X181700499Y-52324499D01*
X181720183Y-52257461D01*
X181772987Y-52211706D01*
X181824499Y-52200500D01*
X185391567Y-52200500D01*
X185458606Y-52220185D01*
G37*
%TD.AperFunction*%
%TD*%
M02*
